<svg width="120" height="120" viewBox="0 0 120 120" fill="none" xmlns="http://www.w3.org/2000/svg">
  <path d="M60 6 L108 30 L108 78 L60 114 L12 78 L12 30 Z" fill="url(#lg)" stroke="url(#ls)" stroke-width="2"/>
  <circle cx="60" cy="58" r="32" fill="none" stroke="rgba(255,255,255,0.15)" stroke-width="2"/>
  <circle cx="60" cy="58" r="26" fill="none" stroke="rgba(255,255,255,0.1)" stroke-width="1"/>
  <path d="M54 28 L60 18 L66 28" fill="none" stroke="rgba(255,255,255,0.9)" stroke-width="2.5" stroke-linecap="round" stroke-linejoin="round"/>
  <line x1="57" y1="23" x2="55" y2="44" stroke="rgba(255,255,255,0.7)" stroke-width="1.5"/>
  <line x1="63" y1="23" x2="65" y2="44" stroke="rgba(255,255,255,0.7)" stroke-width="1.5"/>
  <line x1="56" y1="30" x2="64" y2="30" stroke="rgba(255,255,255,0.4)" stroke-width="1"/>
  <line x1="55.5" y1="36" x2="64.5" y2="36" stroke="rgba(255,255,255,0.4)" stroke-width="1"/>
  <line x1="55" y1="42" x2="65" y2="42" stroke="rgba(255,255,255,0.4)" stroke-width="1"/>
  <line x1="60" y1="44" x2="60" y2="72" stroke="rgba(255,255,255,0.5)" stroke-width="1.5"/>
  <line x1="38.49" y1="37.49" x2="34.96" y2="34.46" stroke="rgba(255,255,255,0.3)" stroke-width="3" stroke-linecap="round"/>
  <line x1="39.49" y1="78.51" x2="36.46" y2="81.54" stroke="rgba(255,255,255,0.3)" stroke-width="3" stroke-linecap="round"/>
  <line x1="80.51" y1="37.49" x2="83.54" y2="34.46" stroke="rgba(255,255,255,0.3)" stroke-width="3" stroke-linecap="round"/>
  <line x1="81.51" y1="78.51" x2="84.54" y2="81.54" stroke="rgba(255,255,255,0.3)" stroke-width="3" stroke-linecap="round"/>
  <line x1="31" y1="58" x2="26" y2="58" stroke="rgba(255,255,255,0.3)" stroke-width="3" stroke-linecap="round"/>
  <line x1="89" y1="58" x2="94" y2="58" stroke="rgba(255,255,255,0.3)" stroke-width="3" stroke-linecap="round"/>
  <line x1="60" y1="29" x2="60" y2="24" stroke="rgba(255,255,255,0.3)" stroke-width="3" stroke-linecap="round"/>
  <line x1="60" y1="87" x2="60" y2="92" stroke="rgba(255,255,255,0.3)" stroke-width="3" stroke-linecap="round"/>
  <text x="60" y="68" text-anchor="middle" font-family="system-ui,sans-serif" font-size="22" font-weight="800" fill="white" letter-spacing="2">BQ</text>
  <text x="60" y="82" text-anchor="middle" font-family="system-ui,sans-serif" font-size="6.5" font-weight="600" fill="rgba(255,255,255,0.7)" letter-spacing="3">ENGINEERING</text>
  <circle cx="40" cy="45" r="2.5" fill="rgba(0,180,216,0.8)"/>
  <circle cx="80" cy="45" r="2.5" fill="rgba(0,180,216,0.8)"/>
  <circle cx="60" cy="90" r="2.5" fill="rgba(0,180,216,0.8)"/>
  <defs>
    <linearGradient id="lg" x1="0" y1="0" x2="1" y2="1"><stop offset="0%" stop-color="#0f4c75"/><stop offset="50%" stop-color="#0a3d62"/><stop offset="100%" stop-color="#00b4d8"/></linearGradient>
    <linearGradient id="ls" x1="0" y1="0" x2="1" y2="1"><stop offset="0%" stop-color="#3282b8"/><stop offset="100%" stop-color="#00b4d8"/></linearGradient>
  </defs>
</svg>
